<svg xmlns="http://www.w3.org/2000/svg" width="25" height="26" viewBox="0 0 25 26">
    <g fill="none" fill-rule="evenodd" stroke="#FFF">
        <path fill-rule="nonzero" stroke-width=".8" d="M19.231 16.883c-.783-.773-1.761-.773-2.54 0-.594.59-1.187 1.178-1.771 1.777-.16.164-.295.2-.49.09-.384-.21-.793-.38-1.162-.61-1.722-1.082-3.164-2.474-4.441-4.041-.634-.778-1.198-1.612-1.592-2.55-.08-.19-.065-.314.09-.469.594-.574 1.172-1.163 1.756-1.751.814-.819.814-1.777-.005-2.6-.464-.47-.928-.928-1.392-1.397-.479-.48-.953-.963-1.437-1.437-.783-.764-1.762-.764-2.54.005-.599.588-1.173 1.192-1.781 1.771-.564.534-.849 1.188-.909 1.951-.094 1.243.21 2.415.64 3.558.877 2.365 2.215 4.466 3.836 6.392 2.191 2.605 4.806 4.666 7.865 6.153 1.377.668 2.804 1.182 4.356 1.267 1.068.06 1.996-.21 2.74-1.043.509-.569 1.083-1.088 1.621-1.632.799-.808.804-1.786.01-2.584a768.296 768.296 0 0 0-2.854-2.85z"/>
        <path stroke-linecap="round" d="M14 1l2.02.973a14 14 0 0 1 6.897 7.355L24 12M14 5a12.084 12.084 0 0 1 5.79 6.448L20 12"/>
    </g>
</svg>
